<svg width="256" height="283" viewBox="0 0 256 283" fill="none" xmlns="http://www.w3.org/2000/svg">
<g clip-path="url(#clip0_2_15554)">
<path d="M239.553 138.96C239.553 124.451 227.791 112.69 213.282 112.69C212.349 112.69 211.429 112.74 210.521 112.835L246.603 6.41504H93.267L129.299 112.742C128.77 112.71 128.239 112.69 127.702 112.69C113.194 112.69 101.432 124.451 101.432 138.96C101.432 150.687 109.118 160.616 119.725 163.994C114.123 173.699 107.073 182.439 99.069 189.991C88.1855 200.258 75.7294 208.044 62.257 212.842C46.2175 204.601 38.6427 186.277 45.4777 170.209C46.2489 168.394 47.0375 166.556 47.7901 164.724C59.4108 162.012 68.0692 151.595 68.0692 139.148C68.0692 124.64 56.308 112.878 41.7988 112.878C27.2902 112.878 15.5283 124.64 15.5283 139.148C15.5283 148.045 19.9554 155.904 26.7217 160.656C20.2197 175.46 10.6617 190.954 7.68405 208.911C4.11544 230.432 7.6725 253.275 26.2854 266.176C69.6335 296.22 116.687 247.551 166.299 235.317C184.28 230.883 204.016 231.598 219.857 222.423C231.753 215.532 239.596 204.114 241.821 191.295C244.02 178.631 240.815 166.022 233.443 155.798C237.256 151.239 239.553 145.369 239.553 138.96Z" fill="#99425B"/>
<path d="M235.5 190.198C233.568 201.327 226.694 211.049 216.642 216.871C207.271 222.298 196.042 223.919 184.153 225.633C177.783 226.551 171.197 227.501 164.763 229.088C147.751 233.283 131.274 241.468 115.339 249.383C83.449 265.222 55.9088 278.9 29.9405 260.903C10.9189 247.719 11.7972 223.328 14.0133 209.961C16.0671 197.577 21.6196 186.173 26.9891 175.143C27.9169 173.236 28.8261 171.365 29.7108 169.509C32.3722 170.572 35.2029 171.298 38.1537 171.628C32.6879 189.666 41.2834 209.28 59.3253 218.549L61.7942 219.817L64.4094 218.886C78.6723 213.807 91.8149 205.656 103.472 194.658C111.007 187.549 117.486 179.684 122.811 171.28C124.407 171.521 126.04 171.647 127.702 171.647C144.261 171.647 157.973 159.268 160.095 143.28C166.873 143.031 174.072 143.03 180.889 143.277C183.01 159.267 196.723 171.647 213.282 171.647C220.206 171.647 226.628 169.477 231.919 165.791C235.592 173.31 236.963 181.77 235.5 190.198ZM41.7986 119.295C52.747 119.295 61.6531 128.201 61.6531 139.149C61.6531 143.082 60.4995 146.748 58.5182 149.836C55.2171 154.983 49.6089 158.511 43.1627 158.952C42.7116 158.982 42.2574 159.004 41.7986 159.004C39.3593 159.004 37.0219 158.558 34.861 157.751C30.4897 156.114 26.8473 152.978 24.5562 148.973C22.8976 146.074 21.9442 142.722 21.9442 139.149C21.9442 128.201 30.851 119.295 41.7986 119.295ZM107.848 138.961C107.848 129.014 115.201 120.754 124.755 119.326C125.717 119.182 126.701 119.106 127.702 119.106C134.067 119.106 139.734 122.122 143.368 126.794C144.272 127.954 145.055 129.214 145.686 130.559C146.884 133.112 147.557 135.958 147.557 138.961C147.557 140.548 147.364 142.091 147.011 143.571C145.076 151.671 138.169 157.862 129.705 158.714C129.047 158.78 128.379 158.815 127.702 158.815C123.739 158.815 120.045 157.643 116.942 155.633C111.476 152.092 107.848 145.944 107.848 138.961ZM190.713 115.351C186.46 119.421 183.297 124.621 181.722 130.468C174.369 130.192 166.573 130.192 159.264 130.468C157.584 124.236 154.102 118.738 149.417 114.562L169.962 73.0197L190.713 115.351ZM102.216 12.8321H237.653L205.664 107.177C204.278 107.51 202.925 107.929 201.613 108.433L170.012 43.9698L138.323 108.048C136.953 107.576 135.541 107.197 134.097 106.909L102.216 12.8321ZM233.137 138.961C233.137 140.951 232.839 142.873 232.292 144.687C230.988 149.004 228.252 152.703 224.639 155.232C221.418 157.487 217.503 158.815 213.282 158.815C204.115 158.815 196.382 152.568 194.108 144.107C193.667 142.465 193.428 140.74 193.428 138.961C193.428 136.247 193.976 133.659 194.966 131.301C195.476 130.086 196.113 128.937 196.844 127.858C200.417 122.585 206.446 119.106 213.282 119.106C213.909 119.106 214.527 119.139 215.14 119.196C225.22 120.135 233.137 128.639 233.137 138.961ZM245.969 138.961C245.969 123.003 234.471 109.688 219.327 106.843L255.553 0H84.3184L120.599 107.061C105.981 110.314 95.0158 123.377 95.0158 138.961C95.0158 150.662 101.2 160.941 110.468 166.717C106.01 173.359 100.724 179.609 94.6662 185.324C85.0582 194.388 74.3549 201.262 62.8157 205.784C51.193 198.483 46.2796 184.715 51.3823 172.72L51.782 171.781C52.0322 171.193 52.2825 170.605 52.532 170.017C65.298 165.564 74.4852 153.413 74.4852 139.149C74.4852 121.125 59.8219 106.463 41.7986 106.463C23.7753 106.463 9.11213 121.125 9.11213 139.149C9.11213 148.246 12.8514 156.485 18.8696 162.416C17.7789 164.741 16.6304 167.105 15.4518 169.526C9.94942 180.828 3.71303 193.637 1.35449 207.862C-3.32986 236.112 4.22631 258.694 22.6307 271.45C33.7991 279.19 45.1401 282.233 56.5536 282.233C78.0448 282.233 99.7842 271.436 121.047 260.875C136.36 253.269 152.195 245.404 167.836 241.547C173.655 240.111 179.644 239.248 185.984 238.333C198.557 236.52 211.557 234.645 223.073 227.975C236.422 220.243 245.559 207.274 248.143 192.393C250.361 179.618 247.692 166.823 241.182 155.972C244.216 151.013 245.969 145.188 245.969 138.961Z" fill="white"/>
</g>
<defs>
<clipPath id="clip0_2_15554">
<rect width="256" height="283" fill="white"/>
</clipPath>
</defs>
</svg>
