<svg width="256" height="256" viewBox="0 0 256 256" fill="none" xmlns="http://www.w3.org/2000/svg">
<g clip-path="url(#clip0_2_15327)">
<path d="M118.923 0.371408C175.484 -3.55051 212.987 24.1282 234.43 57.8515C245.182 74.7603 255.732 100.441 255.78 126.828C255.832 155.497 246.545 180.324 234.43 198.541C221.979 217.264 205.875 232.729 185.709 242.883C152 259.857 104.89 260.322 74.033 243.978C39.6684 225.777 13.2467 199.799 3.41458 154.747C-0.520144 136.717 -0.972411 113.422 4.5094 93.4347C5.7958 88.746 8.13351 83.8116 9.98396 79.2015C18.8765 57.0473 34.0126 37.7824 52.6835 24.458C60.186 19.1042 69.2876 13.7794 77.3179 10.2248C87.3096 5.80245 104.132 1.39669 118.923 0.371408Z" fill="white"/>
<path d="M226.212 130.016C226.212 183.472 182.877 226.804 129.422 226.804C75.9663 226.804 32.6323 183.472 32.6323 130.016C32.6323 76.5608 75.9663 33.2256 129.422 33.2256C182.877 33.2256 226.212 76.5608 226.212 130.016Z" fill="black"/>
<path d="M118.923 0.371408C175.484 -3.55051 212.987 24.1282 234.43 57.8515C245.182 74.7603 255.732 100.441 255.78 126.828C255.832 155.497 246.545 180.324 234.43 198.541C221.979 217.264 205.875 232.729 185.709 242.883C152 259.857 104.89 260.322 74.033 243.978C39.6684 225.777 13.2467 199.799 3.41458 154.747C-0.520144 136.717 -0.972411 113.422 4.5094 93.4347C5.7958 88.746 8.13351 83.8116 9.98396 79.2015C18.8765 57.0473 34.0126 37.7824 52.6835 24.458C60.186 19.1042 69.2876 13.7794 77.3179 10.2248C87.3096 5.80245 104.132 1.39669 118.923 0.371408ZM99.7623 9.67786C78.7537 15.1247 63.3497 24.883 49.9464 35.4071C30.6188 50.5828 18.2976 71.7604 11.0788 97.2666C3.04764 125.643 8.20647 159.982 19.2904 181.571C30.7844 203.959 46.2173 221.337 68.0115 233.577C89.2147 245.484 119.037 253.13 150.126 247.262C177.749 242.049 198.728 230.016 215.818 212.227C238.684 188.425 257.062 144.586 244.832 98.3614C241.563 86.0072 237.289 73.1313 230.599 62.2308C226.984 56.342 221.68 50.5487 216.366 44.7132C196.31 22.6882 163.895 3.70879 122.207 6.39295C114.274 6.90367 107.302 7.72287 99.7623 9.67786Z" fill="black"/>
<path d="M135.576 246.399L247.422 134.556L246.819 133.952L134.973 245.795L135.576 246.399Z" fill="white"/>
<path d="M125.799 237.541L238.132 125.21L237.529 124.606L125.195 236.938L125.799 237.541Z" fill="white"/>
<path d="M116.021 228.685L228.843 115.865L228.239 115.261L115.418 228.081L116.021 228.685Z" fill="white"/>
<path d="M106.243 219.827L219.553 106.519L218.95 105.916L105.64 219.224L106.243 219.827Z" fill="white"/>
<path d="M96.4655 210.97L210.264 97.1737L209.66 96.5703L95.8622 210.367L96.4655 210.97Z" fill="white"/>
<path d="M86.6876 202.115L200.973 87.8285L200.37 87.2251L86.0842 201.512L86.6876 202.115Z" fill="white"/>
<path d="M76.9097 193.256L191.684 78.4833L191.08 77.8799L76.3063 192.652L76.9097 193.256Z" fill="white"/>
<path d="M67.1318 184.399L182.394 69.1376L181.79 68.5342L66.5284 183.795L67.1318 184.399Z" fill="white"/>
<path d="M57.3539 175.541L173.102 59.7924L172.498 59.189L56.7505 174.938L57.3539 175.541Z" fill="white"/>
<path d="M47.5764 166.683L163.814 50.4467L163.211 49.8433L46.973 166.08L47.5764 166.683Z" fill="white"/>
<path d="M37.7984 157.827L154.525 41.1014L153.921 40.498L37.1951 157.223L37.7984 157.827Z" fill="white"/>
<path d="M28.0205 148.97L145.235 31.7557L144.632 31.1523L27.4171 148.366L28.0205 148.97Z" fill="white"/>
<path d="M18.2426 140.112L135.945 22.4105L135.342 21.8071L17.6392 139.509L18.2426 140.112Z" fill="white"/>
<path d="M8.46469 131.255L126.656 13.0653L126.052 12.4619L7.8613 130.652L8.46469 131.255Z" fill="white"/>
<path d="M7.82332 132.386L121.904 246.471L122.507 245.868L8.42673 131.782L7.82332 132.386Z" fill="white"/>
<path d="M17.0747 123.002L131.377 237.31L131.98 236.706L17.6782 122.398L17.0747 123.002Z" fill="white"/>
<path d="M26.3261 113.619L140.85 228.148L141.454 227.544L26.9296 113.015L26.3261 113.619Z" fill="white"/>
<path d="M35.5776 104.235L150.324 218.986L150.927 218.383L36.181 103.631L35.5776 104.235Z" fill="white"/>
<path d="M44.8286 94.8509L159.797 209.824L160.4 209.221L45.432 94.2476L44.8286 94.8509Z" fill="white"/>
<path d="M54.08 85.4672L169.271 200.662L169.874 200.059L54.6834 84.8638L54.08 85.4672Z" fill="white"/>
<path d="M63.3314 76.0839L178.744 191.501L179.348 190.897L63.9348 75.4805L63.3314 76.0839Z" fill="white"/>
<path d="M72.5824 66.7001L188.218 182.338L188.821 181.735L73.1858 66.0967L72.5824 66.7001Z" fill="white"/>
<path d="M81.8338 57.3163L197.691 173.176L198.295 172.573L82.4372 56.7129L81.8338 57.3163Z" fill="white"/>
<path d="M91.0852 47.9325L207.164 164.014L207.768 163.41L91.6886 47.3291L91.0852 47.9325Z" fill="white"/>
<path d="M100.337 38.5487L216.638 154.852L217.241 154.249L100.94 37.9453L100.337 38.5487Z" fill="white"/>
<path d="M109.588 29.1654L226.111 145.691L226.715 145.087L110.191 28.562L109.588 29.1654Z" fill="white"/>
<path d="M118.839 19.7821L235.584 136.529L236.188 135.926L119.442 19.1787L118.839 19.7821Z" fill="white"/>
<path d="M128.091 10.3983L245.058 127.367L245.662 126.763L128.694 9.79492L128.091 10.3983Z" fill="white"/>
<path d="M209.796 45.2608C199.73 35.1944 187.354 26.1235 172.571 20.6263C157.248 14.9282 139.914 10.1252 119.47 11.8673C86.9043 14.6432 64.0392 29.2544 46.6615 46.3556C34.4896 58.3334 25.3337 73.0112 19.29 90.1499C10.4162 115.315 10.9546 145.018 20.9322 170.622C29.4429 192.462 43.3728 210.077 63.0843 223.723C81.6149 236.552 108.211 246.501 138.082 243.978C174.465 240.905 201.085 222.24 218.554 200.731C223.024 195.229 227.468 189.009 230.05 181.571C232.58 176.212 233.818 172.569 234.977 170.623C239.829 159.75 242.4 148.279 243.188 135.587C245.614 96.5508 230.595 66.0595 209.796 45.2608ZM199.074 164.193C199.004 164.342 198.942 164.48 198.869 164.633C197.064 169.798 193.955 174.117 190.83 177.938C178.613 192.873 159.998 205.834 134.555 207.968C113.665 209.719 95.0664 202.811 82.1081 193.903C70.8475 186.162 62.2877 176.58 56.2854 165.064C55.9193 164.372 52.4334 156.34 52.4232 155.987C47.668 141.238 47.2554 117.521 52.1361 103.289C55.3932 93.7898 60.8217 83.5123 68.0115 75.3698C77.9383 64.1267 87.8724 56.9224 103.595 51.8301C110.773 49.5048 117.2 47.1381 126.039 46.9034C147.594 46.3296 169.544 56.0076 181.329 66.6107C192.16 76.3545 204.503 95.3348 207.607 113.142C210.8 131.47 207.392 149.365 199.074 164.193Z" fill="black"/>
<path d="M161.608 181.774C156.3 181.774 151.642 178.413 150.016 173.41L144.105 155.397H114.53L109.037 173.245C107.379 178.346 102.686 181.76 97.3508 181.76C96.07 181.76 94.7977 181.557 93.5693 181.159C87.1923 179.244 83.5721 172.38 85.5258 165.867L110.488 86.7958C112.109 81.7658 116.881 78.2573 122.094 78.2573H135.367C140.609 78.2573 145.381 81.7061 146.97 86.6443L173.222 165.686C175.322 172.148 171.846 179.085 165.478 181.158C164.219 181.567 162.917 181.774 161.608 181.774Z" fill="white"/>
<path d="M161.608 180.067C156.853 180.067 152.688 177.062 151.234 172.587L145.321 154.571L145.032 153.69H144.105H114.53H113.585L113.307 154.593L107.814 172.442C106.334 176.994 102.133 180.053 97.3508 180.053C96.2054 180.053 95.0663 179.872 93.9643 179.515C88.2384 177.795 85.0009 171.646 86.7518 165.808L111.709 86.7546C113.157 82.2595 117.438 79.1108 122.094 79.1108H135.367C140.056 79.1108 144.333 82.2028 145.752 86.6099L172.008 165.663C173.887 171.447 170.775 177.661 165.082 179.515C163.951 179.882 162.783 180.067 161.608 180.067ZM161.608 182.627C163.052 182.627 164.487 182.399 165.873 181.949C172.919 179.656 176.756 171.993 174.44 164.864L148.185 85.8143C146.428 80.3565 141.163 76.5508 135.367 76.5508H122.094C116.322 76.5508 111.06 80.4212 109.27 85.9766L84.3052 165.055C82.1457 172.254 86.1381 179.838 93.2012 181.958C94.5308 182.39 95.9364 182.613 97.3508 182.613C103.244 182.613 108.426 178.839 110.255 173.214L115.754 155.346L114.53 156.25H144.105L142.888 155.369L148.8 173.382C150.597 178.911 155.747 182.627 161.608 182.627Z" fill="black"/>
<path d="M63.5738 53.0579L63.5426 53.0157C60.4297 48.7494 61.3432 42.7812 65.9277 39.4353C70.5122 36.0898 76.4015 37.0289 79.5145 41.2947L79.5456 41.337C82.6586 45.6032 81.7451 51.5718 77.1605 54.9173C72.576 58.2628 66.6867 57.3242 63.5738 53.0579ZM75.3741 44.4465L75.3429 44.4043C73.7788 42.2607 70.8664 41.5234 68.5956 43.1806C66.3458 44.8224 66.1709 47.7472 67.735 49.8912L67.7662 49.9334C69.3308 52.077 72.2428 52.8143 74.4926 51.1725C76.7637 49.5153 76.9387 46.5905 75.3741 44.4465Z" fill="white"/>
<path d="M93.5868 25.0953L98.2652 23.5942L111.38 38.8407L106.176 40.5103L103.897 37.7924L97.1418 39.9599L96.8943 43.4889L91.7905 45.1264L93.5868 25.0953ZM101.284 34.464L97.7348 30.1111L97.3555 35.7244L101.284 34.464Z" fill="white"/>
<path d="M119.806 29.6821L119.847 19.3555L125.023 19.3759L124.983 29.5976C124.972 32.2515 126.307 33.5178 128.357 33.5263C130.406 33.5345 131.751 32.3313 131.761 29.7563L131.802 19.4037L136.979 19.4242L136.938 29.6194C136.915 35.5577 133.515 38.1459 128.286 38.125C123.057 38.1036 119.783 35.4365 119.806 29.6821Z" fill="white"/>
<path d="M155.673 27.8775L150.396 26.2668L151.7 21.9946L167.13 26.7037L165.826 30.976L160.549 29.3657L156.484 42.6845L151.609 41.1968L155.673 27.8775Z" fill="white"/>
<path d="M180.912 32.6655L185.155 35.4896L181.342 41.2206L186.789 44.8456L190.603 39.1142L194.846 41.9383L184.656 57.2509L180.412 54.4268L184.285 48.6079L178.837 44.983L174.965 50.8018L170.722 47.9777L180.912 32.6655Z" fill="white"/>
<path d="M195.902 200.057L195.935 200.098C199.209 204.242 198.524 210.242 194.07 213.76C189.617 217.279 183.695 216.565 180.421 212.421L180.389 212.38C177.114 208.235 177.8 202.236 182.253 198.717C186.707 195.199 192.628 195.912 195.902 200.057ZM184.438 209.113L184.471 209.155C186.116 211.237 189.054 211.863 191.261 210.12C193.446 208.393 193.51 205.464 191.864 203.381L191.831 203.34C190.187 201.257 187.248 200.632 185.062 202.358C182.856 204.101 182.793 207.031 184.438 209.113Z" fill="white"/>
<path d="M167.128 229.197L162.52 230.903L148.747 216.248L153.872 214.351L156.269 216.967L162.923 214.504L163.014 210.968L168.041 209.107L167.128 229.197ZM159.026 220.177L162.764 224.369L162.895 218.744L159.026 220.177Z" fill="white"/>
<path d="M140.752 225.7L141.207 236.016L136.036 236.245L135.585 226.033C135.468 223.382 134.074 222.181 132.026 222.272C129.979 222.362 128.693 223.629 128.807 226.201L129.263 236.544L124.092 236.772L123.642 226.587C123.38 220.655 126.652 217.906 131.876 217.676C137.1 217.445 140.498 219.951 140.752 225.7Z" fill="white"/>
<path d="M104.82 229.073L110.147 230.512L108.983 234.824L93.405 230.62L94.5694 226.306L99.8972 227.745L103.527 214.298L108.449 215.626L104.82 229.073Z" fill="white"/>
<path d="M79.6373 225.326L75.2644 222.705L78.8036 216.8L73.1917 213.436L69.6525 219.342L65.28 216.721L74.7366 200.943L79.1091 203.564L75.5157 209.56L81.1281 212.924L84.7215 206.928L89.094 209.549L79.6373 225.326Z" fill="white"/>
</g>
<defs>
<clipPath id="clip0_2_15327">
<rect width="256" height="256" fill="white"/>
</clipPath>
</defs>
</svg>
