<svg width="256" height="234" viewBox="0 0 256 234" fill="none" xmlns="http://www.w3.org/2000/svg">
<g clip-path="url(#clip0_2_14476)">
<path d="M192.115 70.8084L130.914 159.296C130.266 160.235 129.327 160.937 128.242 161.298C127.156 161.659 125.983 161.655 124.899 161.293C123.816 160.929 122.882 160.223 122.239 159.283C121.596 158.341 121.279 157.217 121.336 156.08L123.785 107.226L84.243 98.8398C83.3979 98.6608 82.6106 98.2769 81.9506 97.7222C81.2906 97.1678 80.7783 96.4595 80.4593 95.6604C80.1402 94.8612 80.0242 93.9958 80.1214 93.1407C80.2186 92.2859 80.526 91.4675 81.0165 90.7585L142.218 2.27035C142.867 1.33163 143.805 0.628983 144.891 0.26877C145.976 -0.0914432 147.15 -0.0895804 148.233 0.274358C149.317 0.638128 150.251 1.34399 150.894 2.28491C151.537 3.22567 151.854 4.35 151.797 5.48737L149.347 54.3424L188.889 62.7277C189.734 62.9067 190.521 63.2906 191.182 63.8451C191.842 64.3997 192.354 65.108 192.672 65.9072C192.992 66.7063 193.107 67.5717 193.011 68.4266C192.914 69.2817 192.606 70.1 192.115 70.8091V70.8084Z" fill="#FCC72B"/>
<path d="M128.025 233.537C126.397 233.539 124.785 233.22 123.281 232.597C121.777 231.974 120.411 231.059 119.262 229.908L61.4337 172.084C59.1203 169.759 57.8236 166.611 57.8278 163.33C57.8322 160.05 59.1373 156.903 61.4571 154.585C63.7767 152.265 66.9217 150.959 70.2023 150.954C73.483 150.951 76.6316 152.246 78.9576 154.559L128.025 203.621L234.917 96.7333C237.247 94.4406 240.389 93.1616 243.657 93.1749C246.928 93.1882 250.059 94.4927 252.369 96.8042C254.681 99.1159 255.986 102.247 256 105.516C256.012 108.785 254.733 111.927 252.44 114.257L136.785 229.908C135.636 231.061 134.27 231.974 132.767 232.597C131.264 233.22 129.652 233.539 128.025 233.537Z" fill="#729B1B"/>
<path d="M127.975 233.537C129.603 233.539 131.215 233.22 132.718 232.597C134.222 231.974 135.588 231.059 136.738 229.908L194.566 172.084C196.879 169.759 198.176 166.611 198.171 163.33C198.168 160.05 196.862 156.903 194.542 154.585C192.222 152.265 189.077 150.959 185.796 150.954C182.516 150.951 179.368 152.246 177.041 154.559L127.975 203.621L21.0822 96.7333C18.7519 94.4406 15.6101 93.1616 12.3412 93.1749C9.07222 93.1882 5.94089 94.4927 3.62941 96.8042C1.31788 99.1159 0.0133932 102.247 -2.07737e-05 105.516C-0.013229 108.785 1.26572 111.927 3.55835 114.257L119.214 229.908C120.363 231.061 121.729 231.974 123.232 232.597C124.736 233.22 126.347 233.539 127.975 233.537Z" fill="#729B1B" fill-opacity="0.5"/>
</g>
<defs>
<clipPath id="clip0_2_14476">
<rect width="256" height="234" fill="white"/>
</clipPath>
</defs>
</svg>
